# xmcd
#
# Track frame offsets:
#	150
#	12709
#	24883
#	37465
#	52693
#	73263
#	92713
#	110494
#	121935
#	138459
#	158009
#	165405
#	181588
#	199993
#	217765
#	227430
#
# Disc length: 3248 seconds
#
# Revision: 3
# Processed by: cddbd v1.5.2PL0 Copyright (c) Steve Scherf et al.
# Submitted via: EasyCDDAExtractor 10.0.2.1
#
DISCID=cf0cae10
DTITLE=Arsen Dedic - Jezik ljubavi
DYEAR=2005
DGENRE=Blues
TTITLE0=Sve te vodilo k meni
TTITLE1=Tvoje njezne godine
TTITLE2=Kuca pored mora
TTITLE3=Djevojka iz mog kraja
TTITLE4=Djevojka za jedan dan
TTITLE5=Ne daj se Ines
TTITLE6=Kako si
TTITLE7=Moderato contabile
TTITLE8=Otkako te ne volim
TTITLE9=Tvoje tijelo - moja kuca
TTITLE10=Stara pjesma
TTITLE11=Okus soli
TTITLE12=Amigo
TTITLE13=Ne placi
TTITLE14=Lu
TTITLE15=Sve sto znas o meni
EXTD=
EXTT0=
EXTT1=
EXTT2=
EXTT3=
EXTT4=
EXTT5=
EXTT6=
EXTT7=
EXTT8=
EXTT9=
EXTT10=
EXTT11=
EXTT12=
EXTT13=
EXTT14=
EXTT15=
PLAYORDER=
